<mxfile host="app.diagrams.net" agent="Mozilla/5.0 (Windows NT 10.0; Win64; x64) AppleWebKit/537.36 (KHTML, like Gecko) Chrome/131.0.0.0 Safari/537.36 Edg/131.0.0.0" version="24.9.0">
  <diagram name="第 1 页" id="dl90-UitxEwvtcPOrJoF">
    <mxGraphModel dx="1042" dy="565" grid="1" gridSize="10" guides="1" tooltips="1" connect="1" arrows="1" fold="1" page="1" pageScale="1" pageWidth="827" pageHeight="1169" math="0" shadow="0">
      <root>
        <mxCell id="0" />
        <mxCell id="1" parent="0" />
        <mxCell id="TvB3sx-UJW-NTQipRDnn-64" value="" style="rounded=0;whiteSpace=wrap;html=1;dashed=1;" vertex="1" parent="1">
          <mxGeometry x="170" y="640" width="430" height="130" as="geometry" />
        </mxCell>
        <mxCell id="TvB3sx-UJW-NTQipRDnn-1" value="" style="rounded=0;whiteSpace=wrap;html=1;dashed=1;" vertex="1" parent="1">
          <mxGeometry x="170" y="780" width="430" height="100" as="geometry" />
        </mxCell>
        <mxCell id="TvB3sx-UJW-NTQipRDnn-51" style="edgeStyle=orthogonalEdgeStyle;rounded=0;orthogonalLoop=1;jettySize=auto;html=1;entryX=0.5;entryY=1;entryDx=0;entryDy=0;" edge="1" parent="1" source="TvB3sx-UJW-NTQipRDnn-2" target="TvB3sx-UJW-NTQipRDnn-46">
          <mxGeometry relative="1" as="geometry" />
        </mxCell>
        <mxCell id="TvB3sx-UJW-NTQipRDnn-52" style="edgeStyle=orthogonalEdgeStyle;rounded=0;orthogonalLoop=1;jettySize=auto;html=1;entryX=0.5;entryY=1;entryDx=0;entryDy=0;" edge="1" parent="1" source="TvB3sx-UJW-NTQipRDnn-2" target="TvB3sx-UJW-NTQipRDnn-34">
          <mxGeometry relative="1" as="geometry" />
        </mxCell>
        <mxCell id="TvB3sx-UJW-NTQipRDnn-2" value="" style="rounded=0;whiteSpace=wrap;html=1;dashed=1;" vertex="1" parent="1">
          <mxGeometry x="170" y="400" width="430" height="220" as="geometry" />
        </mxCell>
        <mxCell id="TvB3sx-UJW-NTQipRDnn-39" style="edgeStyle=orthogonalEdgeStyle;rounded=0;orthogonalLoop=1;jettySize=auto;html=1;entryX=0;entryY=0.5;entryDx=0;entryDy=0;" edge="1" parent="1" source="TvB3sx-UJW-NTQipRDnn-3" target="TvB3sx-UJW-NTQipRDnn-34">
          <mxGeometry relative="1" as="geometry" />
        </mxCell>
        <mxCell id="TvB3sx-UJW-NTQipRDnn-47" style="edgeStyle=orthogonalEdgeStyle;rounded=0;orthogonalLoop=1;jettySize=auto;html=1;" edge="1" parent="1" source="TvB3sx-UJW-NTQipRDnn-3" target="TvB3sx-UJW-NTQipRDnn-46">
          <mxGeometry relative="1" as="geometry" />
        </mxCell>
        <mxCell id="TvB3sx-UJW-NTQipRDnn-3" value="" style="rounded=0;whiteSpace=wrap;html=1;dashed=1;" vertex="1" parent="1">
          <mxGeometry x="170" y="250" width="430" height="110" as="geometry" />
        </mxCell>
        <mxCell id="TvB3sx-UJW-NTQipRDnn-4" value="&lt;b&gt;数据层&lt;/b&gt;" style="text;html=1;align=center;verticalAlign=middle;whiteSpace=wrap;rounded=0;" vertex="1" parent="1">
          <mxGeometry x="100" y="820" width="60" height="30" as="geometry" />
        </mxCell>
        <mxCell id="TvB3sx-UJW-NTQipRDnn-5" value="&lt;b&gt;服务层&lt;/b&gt;" style="text;html=1;align=center;verticalAlign=middle;whiteSpace=wrap;rounded=0;" vertex="1" parent="1">
          <mxGeometry x="100" y="510" width="60" height="30" as="geometry" />
        </mxCell>
        <mxCell id="TvB3sx-UJW-NTQipRDnn-6" value="&lt;b&gt;支持外部应用&lt;/b&gt;" style="text;html=1;align=center;verticalAlign=middle;whiteSpace=wrap;rounded=0;" vertex="1" parent="1">
          <mxGeometry x="181" y="250" width="90" height="30" as="geometry" />
        </mxCell>
        <mxCell id="TvB3sx-UJW-NTQipRDnn-8" value="" style="shape=cylinder3;whiteSpace=wrap;html=1;boundedLbl=1;backgroundOutline=1;size=15;" vertex="1" parent="1">
          <mxGeometry x="306" y="810" width="40" height="50" as="geometry" />
        </mxCell>
        <mxCell id="TvB3sx-UJW-NTQipRDnn-11" value="" style="shape=cylinder3;whiteSpace=wrap;html=1;boundedLbl=1;backgroundOutline=1;size=15;" vertex="1" parent="1">
          <mxGeometry x="206" y="810" width="40" height="50" as="geometry" />
        </mxCell>
        <mxCell id="TvB3sx-UJW-NTQipRDnn-12" value="" style="shape=cylinder3;whiteSpace=wrap;html=1;boundedLbl=1;backgroundOutline=1;size=15;" vertex="1" parent="1">
          <mxGeometry x="410" y="810" width="40" height="50" as="geometry" />
        </mxCell>
        <mxCell id="TvB3sx-UJW-NTQipRDnn-13" value="" style="shape=cylinder3;whiteSpace=wrap;html=1;boundedLbl=1;backgroundOutline=1;size=15;" vertex="1" parent="1">
          <mxGeometry x="515" y="810" width="40" height="50" as="geometry" />
        </mxCell>
        <mxCell id="TvB3sx-UJW-NTQipRDnn-17" value="Doris" style="text;html=1;align=center;verticalAlign=middle;whiteSpace=wrap;rounded=0;" vertex="1" parent="1">
          <mxGeometry x="196" y="810" width="60" height="30" as="geometry" />
        </mxCell>
        <mxCell id="TvB3sx-UJW-NTQipRDnn-18" value="Hive" style="text;html=1;align=center;verticalAlign=middle;whiteSpace=wrap;rounded=0;" vertex="1" parent="1">
          <mxGeometry x="296" y="810" width="60" height="30" as="geometry" />
        </mxCell>
        <mxCell id="TvB3sx-UJW-NTQipRDnn-19" value="ES" style="text;html=1;align=center;verticalAlign=middle;whiteSpace=wrap;rounded=0;" vertex="1" parent="1">
          <mxGeometry x="405" y="810" width="60" height="30" as="geometry" />
        </mxCell>
        <mxCell id="TvB3sx-UJW-NTQipRDnn-20" value="Mysql" style="text;html=1;align=center;verticalAlign=middle;whiteSpace=wrap;rounded=0;" vertex="1" parent="1">
          <mxGeometry x="505" y="805" width="60" height="30" as="geometry" />
        </mxCell>
        <mxCell id="TvB3sx-UJW-NTQipRDnn-21" value="取数系统" style="rounded=0;whiteSpace=wrap;html=1;" vertex="1" parent="1">
          <mxGeometry x="306" y="680" width="70" height="50" as="geometry" />
        </mxCell>
        <mxCell id="TvB3sx-UJW-NTQipRDnn-22" value="准点监控" style="rounded=1;whiteSpace=wrap;html=1;" vertex="1" parent="1">
          <mxGeometry x="320" y="550" width="105" height="50" as="geometry" />
        </mxCell>
        <mxCell id="TvB3sx-UJW-NTQipRDnn-26" value="" style="rounded=0;whiteSpace=wrap;html=1;dashed=1;" vertex="1" parent="1">
          <mxGeometry x="430" y="450" width="160" height="150" as="geometry" />
        </mxCell>
        <mxCell id="TvB3sx-UJW-NTQipRDnn-23" value="性能监控" style="rounded=1;whiteSpace=wrap;html=1;" vertex="1" parent="1">
          <mxGeometry x="460" y="540" width="100" height="50" as="geometry" />
        </mxCell>
        <mxCell id="TvB3sx-UJW-NTQipRDnn-24" value="链路追踪监控" style="rounded=1;whiteSpace=wrap;html=1;" vertex="1" parent="1">
          <mxGeometry x="200" y="550" width="90" height="50" as="geometry" />
        </mxCell>
        <mxCell id="TvB3sx-UJW-NTQipRDnn-28" value="缓存预热" style="rounded=1;whiteSpace=wrap;html=1;" vertex="1" parent="1">
          <mxGeometry x="460" y="470" width="100" height="50" as="geometry" />
        </mxCell>
        <mxCell id="TvB3sx-UJW-NTQipRDnn-29" value="&lt;font style=&quot;font-size: 14px;&quot;&gt;&lt;b&gt;监控系统&lt;/b&gt;&lt;/font&gt;" style="text;html=1;align=center;verticalAlign=middle;whiteSpace=wrap;rounded=0;" vertex="1" parent="1">
          <mxGeometry x="200" y="410" width="60" height="30" as="geometry" />
        </mxCell>
        <mxCell id="TvB3sx-UJW-NTQipRDnn-30" value="" style="endArrow=classic;html=1;rounded=0;entryX=0.5;entryY=1;entryDx=0;entryDy=0;exitX=0.5;exitY=0;exitDx=0;exitDy=0;" edge="1" parent="1" source="TvB3sx-UJW-NTQipRDnn-2" target="TvB3sx-UJW-NTQipRDnn-3">
          <mxGeometry width="50" height="50" relative="1" as="geometry">
            <mxPoint x="384.5" y="340" as="sourcePoint" />
            <mxPoint x="384.5" y="270" as="targetPoint" />
          </mxGeometry>
        </mxCell>
        <mxCell id="TvB3sx-UJW-NTQipRDnn-31" value="支持" style="text;html=1;align=center;verticalAlign=middle;whiteSpace=wrap;rounded=0;" vertex="1" parent="1">
          <mxGeometry x="380" y="370" width="60" height="30" as="geometry" />
        </mxCell>
        <mxCell id="TvB3sx-UJW-NTQipRDnn-32" value="数据同步系统" style="rounded=0;whiteSpace=wrap;html=1;" vertex="1" parent="1">
          <mxGeometry x="490" y="680" width="85" height="50" as="geometry" />
        </mxCell>
        <mxCell id="TvB3sx-UJW-NTQipRDnn-34" value="指标收集中心" style="rounded=0;whiteSpace=wrap;html=1;" vertex="1" parent="1">
          <mxGeometry x="640" y="275" width="120" height="60" as="geometry" />
        </mxCell>
        <mxCell id="TvB3sx-UJW-NTQipRDnn-35" value="外部服务1" style="rounded=0;whiteSpace=wrap;html=1;" vertex="1" parent="1">
          <mxGeometry x="206" y="280" width="90" height="45" as="geometry" />
        </mxCell>
        <mxCell id="TvB3sx-UJW-NTQipRDnn-36" value="外部服务2" style="rounded=0;whiteSpace=wrap;html=1;" vertex="1" parent="1">
          <mxGeometry x="335" y="280" width="90" height="45" as="geometry" />
        </mxCell>
        <mxCell id="TvB3sx-UJW-NTQipRDnn-37" value="外部服务3" style="rounded=0;whiteSpace=wrap;html=1;" vertex="1" parent="1">
          <mxGeometry x="465" y="280" width="90" height="45" as="geometry" />
        </mxCell>
        <mxCell id="TvB3sx-UJW-NTQipRDnn-42" value="写入" style="text;html=1;align=center;verticalAlign=middle;whiteSpace=wrap;rounded=0;" vertex="1" parent="1">
          <mxGeometry x="590" y="275" width="60" height="30" as="geometry" />
        </mxCell>
        <mxCell id="TvB3sx-UJW-NTQipRDnn-46" value="日志中心" style="rounded=0;whiteSpace=wrap;html=1;" vertex="1" parent="1">
          <mxGeometry y="275" width="120" height="60" as="geometry" />
        </mxCell>
        <mxCell id="TvB3sx-UJW-NTQipRDnn-48" value="写入" style="text;html=1;align=center;verticalAlign=middle;whiteSpace=wrap;rounded=0;" vertex="1" parent="1">
          <mxGeometry x="120" y="270" width="60" height="30" as="geometry" />
        </mxCell>
        <mxCell id="TvB3sx-UJW-NTQipRDnn-53" value="定时采集" style="text;html=1;align=center;verticalAlign=middle;whiteSpace=wrap;rounded=0;" vertex="1" parent="1">
          <mxGeometry x="90" y="480" width="60" height="30" as="geometry" />
        </mxCell>
        <mxCell id="TvB3sx-UJW-NTQipRDnn-54" value="定时采集" style="text;html=1;align=center;verticalAlign=middle;whiteSpace=wrap;rounded=0;" vertex="1" parent="1">
          <mxGeometry x="620" y="480" width="60" height="30" as="geometry" />
        </mxCell>
        <mxCell id="TvB3sx-UJW-NTQipRDnn-56" value="诊断告警" style="rounded=1;whiteSpace=wrap;html=1;" vertex="1" parent="1">
          <mxGeometry x="240" y="465" width="120" height="60" as="geometry" />
        </mxCell>
        <mxCell id="TvB3sx-UJW-NTQipRDnn-65" value="&lt;b&gt;中间件&lt;/b&gt;" style="text;html=1;align=center;verticalAlign=middle;whiteSpace=wrap;rounded=0;" vertex="1" parent="1">
          <mxGeometry x="90" y="700" width="60" height="30" as="geometry" />
        </mxCell>
        <mxCell id="TvB3sx-UJW-NTQipRDnn-66" value="缓存Redis" style="rounded=0;whiteSpace=wrap;html=1;" vertex="1" parent="1">
          <mxGeometry x="397" y="680" width="76" height="50" as="geometry" />
        </mxCell>
        <mxCell id="TvB3sx-UJW-NTQipRDnn-67" value="消息队列" style="rounded=0;whiteSpace=wrap;html=1;" vertex="1" parent="1">
          <mxGeometry x="206" y="680" width="70" height="50" as="geometry" />
        </mxCell>
      </root>
    </mxGraphModel>
  </diagram>
</mxfile>
